<svg width="140" height="141" viewBox="0 0 140 141" fill="none" xmlns="http://www.w3.org/2000/svg">
<path fill-rule="evenodd" clip-rule="evenodd" d="M22.2631 98.3949V74.2105H40.8157V98.3949H22.2631ZM22.2631 98.3949V117.168H0V98.3949H22.2631ZM22.2631 117.168H40.8157V141H22.2631V117.168Z" fill="#444444"/>
<path d="M60.0287 65.7044V84.3153C60.0287 92.0912 53.7251 98.3949 45.9492 98.3949H40.8157V117.168H45.9492C64.093 117.168 78.8014 102.459 78.8014 84.3153V65.7044L78.8012 56.3181C78.8012 48.5422 85.1048 42.2386 92.8807 42.2386H100.184V23.4659H92.8807C74.7369 23.4659 60.0285 38.1743 60.0285 56.3181L60.0287 65.7044Z" fill="#444444"/>
<path d="M118.737 23.4659V0H100.184V23.4659H118.737Z" fill="#444444"/>
<path d="M118.737 42.2386H139.813V23.4659H118.737V42.2386Z" fill="#444444"/>
<path d="M100.184 42.2386V66.7895H118.737V42.2386H100.184Z" fill="#444444"/>
</svg>
